<svg width="464" height="478" viewBox="0 0 464 478" fill="none" xmlns="http://www.w3.org/2000/svg">
<g filter="url(#filter0_ddiif)">
<path d="M189.124 161.261C210.125 149.137 220.625 143.075 232.155 143.075C243.684 143.075 254.185 149.137 275.185 161.261L295.463 172.969C299.441 175.266 301.431 176.415 303.177 177.67C313.195 184.875 319.638 196.035 320.868 208.313C321.083 210.453 321.083 212.75 321.083 217.344V246.927C321.083 265.097 321.083 274.182 317.792 282.106C316.36 285.555 314.485 288.802 312.215 291.767C306.998 298.578 299.13 303.121 283.394 312.206L275.185 316.946C254.184 329.07 243.684 335.132 232.155 335.132C220.625 335.132 210.125 329.07 189.124 316.946L186.256 315.29C165.256 303.165 154.756 297.103 148.991 287.118C143.226 277.133 143.226 265.008 143.226 240.759V237.448C143.226 213.199 143.226 201.074 148.991 191.089C154.756 181.104 165.256 175.042 186.256 162.917L189.124 161.261Z" fill="url(#paint0_linear)"/>
</g>
<g filter="url(#filter1_ddif)">
<circle cx="232.516" cy="239.329" r="8.12332" fill="url(#paint1_linear)"/>
<circle cx="232.516" cy="239.329" r="8.12332" fill="#C76209"/>
<circle cx="232.515" cy="212.928" r="6.09249" fill="url(#paint2_linear)"/>
<circle cx="232.515" cy="212.928" r="6.09249" fill="#C76209"/>
<circle cx="255.882" cy="227.039" r="6.09249" transform="rotate(62.2584 255.882 227.039)" fill="url(#paint3_linear)"/>
<circle cx="255.882" cy="227.039" r="6.09249" transform="rotate(62.2584 255.882 227.039)" fill="#C76209"/>
<circle r="6.09249" transform="matrix(-0.465485 0.885056 0.885056 0.465485 209.669 226.138)" fill="url(#paint4_linear)"/>
<circle r="6.09249" transform="matrix(-0.465485 0.885056 0.885056 0.465485 209.669 226.138)" fill="#C76209"/>
<circle cx="232.515" cy="265.73" r="6.09249" transform="rotate(-180 232.515 265.73)" fill="url(#paint5_linear)"/>
<circle cx="232.515" cy="265.73" r="6.09249" transform="rotate(-180 232.515 265.73)" fill="#C76209"/>
<circle cx="209.149" cy="251.62" r="6.09249" transform="rotate(-117.742 209.149 251.62)" fill="url(#paint6_linear)"/>
<circle cx="209.149" cy="251.62" r="6.09249" transform="rotate(-117.742 209.149 251.62)" fill="#C76209"/>
<circle r="6.09249" transform="matrix(0.465485 -0.885056 -0.885056 -0.465485 255.363 252.52)" fill="url(#paint7_linear)"/>
<circle r="6.09249" transform="matrix(0.465485 -0.885056 -0.885056 -0.465485 255.363 252.52)" fill="#C76209"/>
<circle cx="231.647" cy="188.033" r="4.06166" fill="url(#paint8_linear)"/>
<circle cx="231.647" cy="188.033" r="4.06166" fill="#C76209"/>
<circle cx="186.789" cy="212.929" r="4.06166" transform="rotate(-60.4542 186.789 212.929)" fill="url(#paint9_linear)"/>
<circle cx="186.789" cy="212.929" r="4.06166" transform="rotate(-60.4542 186.789 212.929)" fill="#C76209"/>
<circle r="4.06166" transform="matrix(-0.493119 -0.869962 -0.869962 0.493119 278.45 213.337)" fill="url(#paint10_linear)"/>
<circle r="4.06166" transform="matrix(-0.493119 -0.869962 -0.869962 0.493119 278.45 213.337)" fill="#C76209"/>
<circle cx="278.45" cy="239.329" r="4.06166" transform="rotate(90 278.45 239.329)" fill="url(#paint11_linear)"/>
<circle cx="278.45" cy="239.329" r="4.06166" transform="rotate(90 278.45 239.329)" fill="#C76209"/>
<circle cx="257.183" cy="276.577" r="4.06166" transform="rotate(146.488 257.183 276.577)" fill="url(#paint12_linear)"/>
<circle cx="257.183" cy="276.577" r="4.06166" transform="rotate(146.488 257.183 276.577)" fill="#C76209"/>
<circle r="4.06166" transform="matrix(0.833772 0.552109 0.552109 -0.833772 207.849 276.577)" fill="url(#paint13_linear)"/>
<circle r="4.06166" transform="matrix(0.833772 0.552109 0.552109 -0.833772 207.849 276.577)" fill="#C76209"/>
<circle cx="232.515" cy="292.13" r="4.06166" transform="rotate(-180 232.515 292.13)" fill="url(#paint14_linear)"/>
<circle cx="232.515" cy="292.13" r="4.06166" transform="rotate(-180 232.515 292.13)" fill="#C76209"/>
<circle cx="278.242" cy="265.729" r="4.06166" transform="rotate(119.546 278.242 265.729)" fill="url(#paint15_linear)"/>
<circle cx="278.242" cy="265.729" r="4.06166" transform="rotate(119.546 278.242 265.729)" fill="#C76209"/>
<circle r="4.06166" transform="matrix(0.493119 0.869962 0.869962 -0.493119 186.581 265.416)" fill="url(#paint16_linear)"/>
<circle r="4.06166" transform="matrix(0.493119 0.869962 0.869962 -0.493119 186.581 265.416)" fill="#C76209"/>
<circle cx="186.581" cy="239.329" r="4.06166" transform="rotate(-90 186.581 239.329)" fill="url(#paint17_linear)"/>
<circle cx="186.581" cy="239.329" r="4.06166" transform="rotate(-90 186.581 239.329)" fill="#C76209"/>
<circle cx="207.849" cy="202.074" r="4.06166" transform="rotate(-33.5118 207.849 202.074)" fill="url(#paint18_linear)"/>
<circle cx="207.849" cy="202.074" r="4.06166" transform="rotate(-33.5118 207.849 202.074)" fill="#C76209"/>
<circle r="4.06166" transform="matrix(-0.833772 -0.552109 -0.552109 0.833772 257.622 201.312)" fill="url(#paint19_linear)"/>
<circle r="4.06166" transform="matrix(-0.833772 -0.552109 -0.552109 0.833772 257.622 201.312)" fill="#C76209"/>
</g>
<path d="M344.911 181.747C347.065 185.711 346.244 191.24 342.535 198.025C338.843 204.779 332.385 212.593 323.641 220.972C306.16 237.723 279.659 256.62 248.281 273.673C216.902 290.727 186.63 302.685 163.066 308.242C151.278 311.021 141.208 312.19 133.533 311.614C125.822 311.035 120.736 308.717 118.582 304.753C116.427 300.789 117.248 295.26 120.957 288.475C124.649 281.721 131.107 273.907 139.851 265.528C157.332 248.777 183.833 229.88 215.212 212.827C246.59 195.773 276.862 183.815 300.427 178.258C312.214 175.479 322.284 174.31 329.959 174.886C337.671 175.465 342.756 177.783 344.911 181.747Z" stroke="url(#paint20_linear)" stroke-width="1.37518"/>
<path d="M344.911 181.747C347.065 185.711 346.244 191.24 342.535 198.025C338.843 204.779 332.385 212.593 323.641 220.972C306.16 237.723 279.659 256.62 248.281 273.673C216.902 290.727 186.63 302.685 163.066 308.242C151.278 311.021 141.208 312.19 133.533 311.614C125.822 311.035 120.736 308.717 118.582 304.753C116.427 300.789 117.248 295.26 120.957 288.475C124.649 281.721 131.107 273.907 139.851 265.528C157.332 248.777 183.833 229.88 215.212 212.827C246.59 195.773 276.862 183.815 300.427 178.258C312.214 175.479 322.284 174.31 329.959 174.886C337.671 175.465 342.756 177.783 344.911 181.747Z" stroke="url(#paint21_linear)" stroke-opacity="0.93" stroke-width="1.37518"/>
<circle cx="128.472" cy="310.522" r="4.12554" transform="rotate(5.44805 128.472 310.522)" fill="#F09340"/>
<circle cx="128.472" cy="310.522" r="4.12554" transform="rotate(5.44805 128.472 310.522)" fill="url(#paint22_linear)" fill-opacity="0.89"/>
<circle cx="343.666" cy="193.839" r="6.4175" transform="rotate(5.44805 343.666 193.839)" fill="#FBED8D"/>
<circle cx="343.666" cy="193.839" r="6.4175" transform="rotate(5.44805 343.666 193.839)" fill="url(#paint23_linear)" fill-opacity="0.89"/>
<defs>
<filter id="filter0_ddiif" x="0.895599" y="0.74411" width="462.518" height="476.719" filterUnits="userSpaceOnUse" color-interpolation-filters="sRGB">
<feFlood flood-opacity="0" result="BackgroundImageFix"/>
<feColorMatrix in="SourceAlpha" type="matrix" values="0 0 0 0 0 0 0 0 0 0 0 0 0 0 0 0 0 0 127 0" result="hardAlpha"/>
<feOffset/>
<feGaussianBlur stdDeviation="71.1654"/>
<feColorMatrix type="matrix" values="0 0 0 0 0.894118 0 0 0 0 0.615686 0 0 0 0 0.0392157 0 0 0 0.74 0"/>
<feBlend mode="normal" in2="BackgroundImageFix" result="effect1_dropShadow"/>
<feColorMatrix in="SourceAlpha" type="matrix" values="0 0 0 0 0 0 0 0 0 0 0 0 0 0 0 0 0 0 127 0" result="hardAlpha"/>
<feOffset/>
<feGaussianBlur stdDeviation="5.86774"/>
<feColorMatrix type="matrix" values="0 0 0 0 0.894118 0 0 0 0 0.615686 0 0 0 0 0.0392157 0 0 0 0.67 0"/>
<feBlend mode="normal" in2="effect1_dropShadow" result="effect2_dropShadow"/>
<feBlend mode="normal" in="SourceGraphic" in2="effect2_dropShadow" result="shape"/>
<feColorMatrix in="SourceAlpha" type="matrix" values="0 0 0 0 0 0 0 0 0 0 0 0 0 0 0 0 0 0 127 0" result="hardAlpha"/>
<feOffset dy="-35.2065"/>
<feGaussianBlur stdDeviation="18.5812"/>
<feComposite in2="hardAlpha" operator="arithmetic" k2="-1" k3="1"/>
<feColorMatrix type="matrix" values="0 0 0 0 0.894118 0 0 0 0 0.615686 0 0 0 0 0.0392157 0 0 0 0.76 0"/>
<feBlend mode="normal" in2="shape" result="effect3_innerShadow"/>
<feColorMatrix in="SourceAlpha" type="matrix" values="0 0 0 0 0 0 0 0 0 0 0 0 0 0 0 0 0 0 127 0" result="hardAlpha"/>
<feOffset dy="-8"/>
<feGaussianBlur stdDeviation="8"/>
<feComposite in2="hardAlpha" operator="arithmetic" k2="-1" k3="1"/>
<feColorMatrix type="matrix" values="0 0 0 0 0.425 0 0 0 0 0.302731 0 0 0 0 0.0495833 0 0 0 1 0"/>
<feBlend mode="normal" in2="effect3_innerShadow" result="effect4_innerShadow"/>
<feGaussianBlur stdDeviation="0.293387" result="effect5_foregroundBlur"/>
</filter>
<filter id="filter1_ddif" x="174.806" y="177.732" width="115.419" height="124.699" filterUnits="userSpaceOnUse" color-interpolation-filters="sRGB">
<feFlood flood-opacity="0" result="BackgroundImageFix"/>
<feColorMatrix in="SourceAlpha" type="matrix" values="0 0 0 0 0 0 0 0 0 0 0 0 0 0 0 0 0 0 127 0" result="hardAlpha"/>
<feOffset/>
<feGaussianBlur stdDeviation="3.11947"/>
<feColorMatrix type="matrix" values="0 0 0 0 0.4125 0 0 0 0 0.22275 0 0 0 0 0 0 0 0 0.5 0"/>
<feBlend mode="normal" in2="BackgroundImageFix" result="effect1_dropShadow"/>
<feColorMatrix in="SourceAlpha" type="matrix" values="0 0 0 0 0 0 0 0 0 0 0 0 0 0 0 0 0 0 127 0" result="hardAlpha"/>
<feOffset/>
<feGaussianBlur stdDeviation="0.80579"/>
<feColorMatrix type="matrix" values="0 0 0 0 0.425 0 0 0 0 0.255 0 0 0 0 0 0 0 0 0.7 0"/>
<feBlend mode="normal" in2="effect1_dropShadow" result="effect2_dropShadow"/>
<feBlend mode="normal" in="SourceGraphic" in2="effect2_dropShadow" result="shape"/>
<feColorMatrix in="SourceAlpha" type="matrix" values="0 0 0 0 0 0 0 0 0 0 0 0 0 0 0 0 0 0 127 0" result="hardAlpha"/>
<feOffset/>
<feGaussianBlur stdDeviation="0.311947"/>
<feComposite in2="hardAlpha" operator="arithmetic" k2="-1" k3="1"/>
<feColorMatrix type="matrix" values="0 0 0 0 1 0 0 0 0 0.581381 0 0 0 0 0.2125 0 0 0 1 0"/>
<feBlend mode="normal" in2="shape" result="effect3_innerShadow"/>
<feGaussianBlur stdDeviation="0.0230226" result="effect4_foregroundBlur"/>
</filter>
<linearGradient id="paint0_linear" x1="232.155" y1="136.418" x2="232.155" y2="341.789" gradientUnits="userSpaceOnUse">
<stop stop-color="white"/>
<stop offset="1" stop-color="white" stop-opacity="0"/>
</linearGradient>
<linearGradient id="paint1_linear" x1="230.926" y1="236.354" x2="238.502" y2="248.477" gradientUnits="userSpaceOnUse">
<stop stop-color="#FFE296"/>
<stop offset="1" stop-color="#FFB800" stop-opacity="0"/>
</linearGradient>
<linearGradient id="paint2_linear" x1="231.323" y1="210.697" x2="237.005" y2="219.79" gradientUnits="userSpaceOnUse">
<stop stop-color="#FFE296"/>
<stop offset="1" stop-color="#FFB800" stop-opacity="0"/>
</linearGradient>
<linearGradient id="paint3_linear" x1="254.689" y1="224.808" x2="260.372" y2="233.901" gradientUnits="userSpaceOnUse">
<stop stop-color="#FFE296"/>
<stop offset="1" stop-color="#FFB800" stop-opacity="0"/>
</linearGradient>
<linearGradient id="paint4_linear" x1="4.90012" y1="3.86163" x2="10.5825" y2="12.954" gradientUnits="userSpaceOnUse">
<stop stop-color="#FFE296"/>
<stop offset="1" stop-color="#FFB800" stop-opacity="0"/>
</linearGradient>
<linearGradient id="paint5_linear" x1="231.323" y1="263.499" x2="237.005" y2="272.591" gradientUnits="userSpaceOnUse">
<stop stop-color="#FFE296"/>
<stop offset="1" stop-color="#FFB800" stop-opacity="0"/>
</linearGradient>
<linearGradient id="paint6_linear" x1="207.957" y1="249.389" x2="213.639" y2="258.481" gradientUnits="userSpaceOnUse">
<stop stop-color="#FFE296"/>
<stop offset="1" stop-color="#FFB800" stop-opacity="0"/>
</linearGradient>
<linearGradient id="paint7_linear" x1="4.90012" y1="3.86163" x2="10.5825" y2="12.954" gradientUnits="userSpaceOnUse">
<stop stop-color="#FFE296"/>
<stop offset="1" stop-color="#FFB800" stop-opacity="0"/>
</linearGradient>
<linearGradient id="paint8_linear" x1="230.852" y1="186.545" x2="234.64" y2="192.607" gradientUnits="userSpaceOnUse">
<stop stop-color="#FFE296"/>
<stop offset="1" stop-color="#FFB800" stop-opacity="0"/>
</linearGradient>
<linearGradient id="paint9_linear" x1="185.994" y1="211.442" x2="189.782" y2="217.504" gradientUnits="userSpaceOnUse">
<stop stop-color="#FFE296"/>
<stop offset="1" stop-color="#FFB800" stop-opacity="0"/>
</linearGradient>
<linearGradient id="paint10_linear" x1="3.26675" y1="2.57442" x2="7.05502" y2="8.63602" gradientUnits="userSpaceOnUse">
<stop stop-color="#FFE296"/>
<stop offset="1" stop-color="#FFB800" stop-opacity="0"/>
</linearGradient>
<linearGradient id="paint11_linear" x1="277.655" y1="237.842" x2="281.443" y2="243.903" gradientUnits="userSpaceOnUse">
<stop stop-color="#FFE296"/>
<stop offset="1" stop-color="#FFB800" stop-opacity="0"/>
</linearGradient>
<linearGradient id="paint12_linear" x1="256.388" y1="275.09" x2="260.176" y2="281.151" gradientUnits="userSpaceOnUse">
<stop stop-color="#FFE296"/>
<stop offset="1" stop-color="#FFB800" stop-opacity="0"/>
</linearGradient>
<linearGradient id="paint13_linear" x1="3.26675" y1="2.57442" x2="7.05502" y2="8.63602" gradientUnits="userSpaceOnUse">
<stop stop-color="#FFE296"/>
<stop offset="1" stop-color="#FFB800" stop-opacity="0"/>
</linearGradient>
<linearGradient id="paint14_linear" x1="231.721" y1="290.643" x2="235.509" y2="296.705" gradientUnits="userSpaceOnUse">
<stop stop-color="#FFE296"/>
<stop offset="1" stop-color="#FFB800" stop-opacity="0"/>
</linearGradient>
<linearGradient id="paint15_linear" x1="277.447" y1="264.242" x2="281.235" y2="270.303" gradientUnits="userSpaceOnUse">
<stop stop-color="#FFE296"/>
<stop offset="1" stop-color="#FFB800" stop-opacity="0"/>
</linearGradient>
<linearGradient id="paint16_linear" x1="3.26675" y1="2.57442" x2="7.05502" y2="8.63602" gradientUnits="userSpaceOnUse">
<stop stop-color="#FFE296"/>
<stop offset="1" stop-color="#FFB800" stop-opacity="0"/>
</linearGradient>
<linearGradient id="paint17_linear" x1="185.786" y1="237.842" x2="189.574" y2="243.904" gradientUnits="userSpaceOnUse">
<stop stop-color="#FFE296"/>
<stop offset="1" stop-color="#FFB800" stop-opacity="0"/>
</linearGradient>
<linearGradient id="paint18_linear" x1="207.054" y1="200.587" x2="210.842" y2="206.648" gradientUnits="userSpaceOnUse">
<stop stop-color="#FFE296"/>
<stop offset="1" stop-color="#FFB800" stop-opacity="0"/>
</linearGradient>
<linearGradient id="paint19_linear" x1="3.26675" y1="2.57442" x2="7.05502" y2="8.63602" gradientUnits="userSpaceOnUse">
<stop stop-color="#FFE296"/>
<stop offset="1" stop-color="#FFB800" stop-opacity="0"/>
</linearGradient>
<linearGradient id="paint20_linear" x1="261.482" y1="261.576" x2="237.379" y2="205.669" gradientUnits="userSpaceOnUse">
<stop stop-color="#FFF493"/>
<stop offset="1" stop-color="#FF8515" stop-opacity="0"/>
</linearGradient>
<linearGradient id="paint21_linear" x1="254.157" y1="279.437" x2="244.99" y2="262.018" gradientUnits="userSpaceOnUse">
<stop stop-color="white"/>
<stop offset="1" stop-color="white" stop-opacity="0"/>
</linearGradient>
<linearGradient id="paint22_linear" x1="126.99" y1="314.433" x2="130.272" y2="308.495" gradientUnits="userSpaceOnUse">
<stop stop-color="#694002"/>
<stop offset="1" stop-color="#FFAC2F" stop-opacity="0"/>
</linearGradient>
<linearGradient id="paint23_linear" x1="341.361" y1="199.923" x2="346.466" y2="190.687" gradientUnits="userSpaceOnUse">
<stop stop-color="#694002"/>
<stop offset="1" stop-color="#FFAC2F" stop-opacity="0"/>
</linearGradient>
</defs>
</svg>
